<svg width="18" height="18" viewBox="0 0 18 18" fill="none" xmlns="http://www.w3.org/2000/svg">
<path d="M15.1875 7.31247H7.08754L14.9133 5.21716C14.9845 5.19732 15.0511 5.16347 15.109 5.11759C15.167 5.07171 15.2152 5.01472 15.2508 4.94997C15.289 4.88742 15.3137 4.8176 15.3234 4.74496C15.3331 4.67233 15.3275 4.59847 15.3071 4.5281L14.7235 2.35544C14.6868 2.21257 14.622 2.07844 14.5329 1.96088C14.4438 1.84332 14.3321 1.74468 14.2045 1.67072C14.0769 1.59676 13.9358 1.54896 13.7895 1.53011C13.6432 1.51125 13.4946 1.52173 13.3524 1.56091L2.48207 4.47185C2.33893 4.50935 2.20466 4.5749 2.08704 4.66469C1.96943 4.75448 1.8708 4.86673 1.7969 4.99492C1.72299 5.12312 1.67527 5.26471 1.65649 5.41148C1.63772 5.55826 1.64827 5.7073 1.68754 5.84997L2.25004 7.95232V14.0625C2.25004 14.3608 2.36857 14.647 2.57955 14.858C2.79052 15.0689 3.07667 15.1875 3.37504 15.1875H14.625C14.9234 15.1875 15.2096 15.0689 15.4205 14.858C15.6315 14.647 15.75 14.3608 15.75 14.0625V7.87497C15.75 7.72579 15.6908 7.58272 15.5853 7.47723C15.4798 7.37174 15.3367 7.31247 15.1875 7.31247ZM11.9039 4.85857L7.0102 6.16638L4.95004 4.97107L9.83676 3.66325L11.9039 4.85857ZM14.625 14.0625H3.37504V8.43747H14.625V14.0625Z" fill="#FFE873"/>
</svg>
