<svg width="18" height="18" viewBox="0 0 18 18" fill="none" xmlns="http://www.w3.org/2000/svg">
<path d="M9 12.375C12.1066 12.375 14.625 9.8566 14.625 6.75C14.625 3.6434 12.1066 1.125 9 1.125C5.8934 1.125 3.375 3.6434 3.375 6.75C3.375 9.8566 5.8934 12.375 9 12.375Z" fill="#FFE873"/>
<path d="M14.5689 12.3186C14.6658 12.2116 14.7179 12.0715 14.7143 11.9271C14.7108 11.7828 14.6519 11.6453 14.5498 11.5432C14.4477 11.4411 14.3102 11.3822 14.1659 11.3786C14.0215 11.3751 13.8813 11.4272 13.7743 11.5241C12.5081 12.7903 10.7908 13.5017 9.00011 13.5017C7.20943 13.5017 5.49209 12.7903 4.22589 11.5241C2.95969 10.2579 2.24834 8.54058 2.24834 6.7499C2.24834 4.95922 2.95969 3.24188 4.22589 1.97568C4.28236 1.92451 4.32784 1.86241 4.35958 1.79314C4.39132 1.72386 4.40865 1.64886 4.41053 1.57268C4.4124 1.49651 4.39878 1.42074 4.37049 1.34999C4.3422 1.27924 4.29983 1.21497 4.24594 1.16109C4.19206 1.10721 4.1278 1.06484 4.05704 1.03655C3.98629 1.00825 3.91053 0.994633 3.83435 0.996508C3.75818 0.998384 3.68317 1.01572 3.6139 1.04746C3.54463 1.0792 3.48252 1.12468 3.43136 1.18115C2.36411 2.24865 1.62615 3.6004 1.30537 5.07542C0.98458 6.55044 1.09448 8.08658 1.62199 9.50091C2.14949 10.9152 3.07236 12.1482 4.28071 13.0529C5.48906 13.9576 6.93197 14.4959 8.43761 14.6038V15.7499H6.75011C6.60092 15.7499 6.45785 15.8092 6.35236 15.9146C6.24687 16.0201 6.18761 16.1632 6.18761 16.3124C6.18761 16.4616 6.24687 16.6047 6.35236 16.7101C6.45785 16.8156 6.60092 16.8749 6.75011 16.8749H11.2501C11.3993 16.8749 11.5424 16.8156 11.6479 16.7101C11.7533 16.6047 11.8126 16.4616 11.8126 16.3124C11.8126 16.1632 11.7533 16.0201 11.6479 15.9146C11.5424 15.8092 11.3993 15.7499 11.2501 15.7499H9.56261V14.6038C11.4525 14.4714 13.2307 13.6597 14.5689 12.3186Z" fill="#FFE873"/>
</svg>
