<svg width="18" height="18" viewBox="0 0 18 18" fill="none" xmlns="http://www.w3.org/2000/svg">
<path d="M14.4492 7.03822L13.2538 4.97104C13.1532 4.79464 13.0187 4.63988 12.858 4.51568C12.6974 4.39148 12.5137 4.30028 12.3177 4.24735C12.1216 4.19441 11.917 4.18078 11.7157 4.20724C11.5143 4.23369 11.3202 4.29972 11.1445 4.4015C10.8311 4.57967 10.5917 4.86395 10.4695 5.20307L9.23197 3.0726C9.13135 2.8962 8.99684 2.74144 8.83617 2.61724C8.6755 2.49304 8.49185 2.40184 8.29579 2.34891C8.09973 2.29597 7.89514 2.28234 7.69379 2.3088C7.49245 2.33526 7.29832 2.40128 7.12259 2.50307C6.80922 2.68123 6.56983 2.96551 6.44759 3.30463C6.23296 2.96819 5.89711 2.72722 5.50964 2.63166C5.12218 2.5361 4.7128 2.59328 4.36634 2.79135C4.19054 2.8933 4.03666 3.02904 3.91357 3.19075C3.79047 3.35246 3.70061 3.53693 3.64916 3.73354C3.58749 3.9533 3.57786 4.18441 3.62103 4.40854C3.3464 4.42956 3.07985 4.51121 2.84056 4.6476C2.42071 4.89157 2.11466 5.29199 1.98946 5.76117C1.86426 6.23034 1.93011 6.73001 2.17259 7.15072L2.31322 7.38979C2.07197 7.41778 1.83946 7.49688 1.63119 7.62182C1.21181 7.86443 0.905898 8.2636 0.780651 8.73163C0.655404 9.19966 0.721068 9.69827 0.963219 10.1179L3.56478 14.6249C4.12069 15.5894 4.95027 16.3673 5.94851 16.86C6.94674 17.3527 8.06872 17.5382 9.17241 17.3929C10.2761 17.2476 11.3119 16.778 12.1486 16.0437C12.9852 15.3094 13.5852 14.3434 13.8726 13.2679L13.8937 13.1765C14.6041 12.3336 15.0384 11.2927 15.1378 10.1948C15.2371 9.09691 14.9967 7.995 14.4492 7.03822ZM12.7828 12.9796C12.632 13.5506 12.369 14.0859 12.0093 14.5543C11.6496 15.0227 11.2002 15.4148 10.6874 15.7078C9.65424 16.3041 8.42654 16.4657 7.27419 16.1572C6.12185 15.8487 5.13916 15.0952 4.54212 14.0624L1.94056 9.55541C1.87055 9.4352 1.83777 9.29693 1.84636 9.15808C1.85496 9.01924 1.90455 8.88606 1.98886 8.77541C2.07316 8.66476 2.1884 8.5816 2.31998 8.53646C2.45157 8.49132 2.59358 8.48622 2.72806 8.52182C2.90838 8.57238 3.0621 8.69082 3.15697 8.85229L4.84447 11.7773C4.89472 11.8616 4.96565 11.9317 5.05055 11.9809C5.13545 12.0301 5.23151 12.0568 5.32963 12.0585C5.4282 12.0582 5.52495 12.0319 5.61018 11.9824C5.69542 11.9329 5.76614 11.8619 5.81528 11.7764C5.86441 11.691 5.89023 11.5941 5.89014 11.4955C5.89006 11.397 5.86407 11.3002 5.81478 11.2148L3.14291 6.58822C3.04967 6.42599 3.02469 6.23335 3.07348 6.0527C3.12227 5.87205 3.24082 5.71818 3.40306 5.62494C3.5653 5.5317 3.75793 5.50673 3.93858 5.55552C4.11923 5.60431 4.2731 5.72286 4.36634 5.8851L7.03822 10.5117C7.07176 10.5816 7.11941 10.6438 7.17817 10.6945C7.23693 10.7451 7.30553 10.7831 7.37965 10.8059C7.45377 10.8288 7.53183 10.8361 7.6089 10.8273C7.68597 10.8185 7.7604 10.7939 7.82751 10.755C7.89462 10.7161 7.95295 10.6638 7.99885 10.6012C8.04475 10.5387 8.07722 10.4674 8.09422 10.3917C8.11122 10.316 8.11239 10.2376 8.09764 10.1615C8.08289 10.0853 8.05255 10.013 8.00853 9.94916L5.89916 6.29291C5.80715 6.13039 5.78286 5.93818 5.83156 5.75788C5.88025 5.57759 5.998 5.42373 6.15931 5.32963C6.32076 5.23796 6.51191 5.21387 6.69106 5.26261C6.87021 5.31135 7.02281 5.42896 7.11556 5.58979L10.0687 10.7085C10.1196 10.7938 10.1916 10.8646 10.2778 10.9138C10.3641 10.9631 10.4616 10.9893 10.5609 10.9898C10.6595 10.9873 10.7561 10.9608 10.8421 10.9124C10.9704 10.8375 11.0639 10.7149 11.1021 10.5713C11.1403 10.4277 11.1202 10.2748 11.046 10.146L9.92103 8.19135C9.8287 8.03181 9.80341 7.84216 9.85072 7.66401C9.87321 7.57357 9.91419 7.48878 9.97106 7.41496C10.0279 7.34115 10.0995 7.27991 10.1812 7.2351C10.2594 7.18748 10.3467 7.15664 10.4375 7.14454C10.5283 7.13244 10.6206 7.13933 10.7085 7.16479C10.798 7.18723 10.8821 7.22743 10.9558 7.28299C11.0295 7.33855 11.0912 7.40834 11.1374 7.48822L12.3328 9.56244C12.6304 10.0738 12.8235 10.6392 12.9008 11.2259C12.978 11.8125 12.9379 12.4086 12.7828 12.9796ZM11.6015 1.73666L11.8898 0.646818C11.9087 0.575257 11.9415 0.508126 11.9864 0.449257C12.0313 0.390388 12.0873 0.340934 12.1513 0.303718C12.2153 0.266502 12.286 0.242253 12.3593 0.232356C12.4327 0.222459 12.5073 0.227108 12.5788 0.246036C12.6504 0.264965 12.7175 0.297804 12.7764 0.342676C12.8353 0.387549 12.8847 0.443578 12.9219 0.507563C12.9592 0.571549 12.9834 0.642238 12.9933 0.715594C13.0032 0.788951 12.9986 0.863539 12.9796 0.935099L12.6843 2.02494C12.653 2.14445 12.5828 2.25012 12.4848 2.32525C12.3867 2.40038 12.2664 2.44068 12.1429 2.43979L11.9953 2.42572C11.8519 2.38626 11.7299 2.2916 11.6561 2.16247C11.5823 2.03334 11.5627 1.88024 11.6015 1.73666ZM13.4507 2.38354L14.0976 1.46244C14.184 1.3402 14.3151 1.25691 14.4625 1.2306C14.6099 1.20428 14.7617 1.23705 14.8851 1.32182C14.9458 1.36455 14.9975 1.41889 15.0371 1.4817C15.0767 1.5445 15.1035 1.61453 15.1159 1.68774C15.1284 1.76095 15.1262 1.8359 15.1095 1.90825C15.0928 1.98061 15.0619 2.04894 15.0187 2.10932L14.3718 3.03041C14.3297 3.0909 14.276 3.14242 14.2138 3.18195C14.1516 3.22149 14.0822 3.24825 14.0096 3.26068C13.9369 3.27312 13.8625 3.27097 13.7907 3.25437C13.7189 3.23778 13.6512 3.20706 13.5913 3.16401C13.4696 3.07886 13.3864 2.949 13.3601 2.80277C13.3337 2.65654 13.3663 2.50583 13.4507 2.38354ZM16.5374 3.90229L15.6163 4.54916C15.5201 4.61206 15.4079 4.64621 15.2929 4.6476C15.1742 4.64666 15.0589 4.6082 14.9634 4.53772C14.8678 4.46724 14.7971 4.36835 14.7612 4.25521C14.7253 4.14207 14.7261 4.02048 14.7635 3.90783C14.8009 3.79518 14.873 3.69726 14.9695 3.62807L15.8906 2.98119C15.9509 2.93796 16.0193 2.90711 16.0916 2.89042C16.164 2.87373 16.2389 2.87153 16.3121 2.88395C16.3854 2.89637 16.4554 2.92316 16.5182 2.96278C16.581 3.0024 16.6353 3.05406 16.6781 3.11479C16.7628 3.23819 16.7956 3.39 16.7693 3.53738C16.743 3.68476 16.6597 3.81585 16.5374 3.90229Z" fill="#FFE873"/>
</svg>
